<?xml version="1.0" encoding="utf-8"?>
<!-- Generator: Adobe Illustrator 19.0.0, SVG Export Plug-In . SVG Version: 6.00 Build 0)  -->
<svg version="1.1" id="Layer_1" xmlns="http://www.w3.org/2000/svg" xmlns:xlink="http://www.w3.org/1999/xlink" x="0px" y="0px"
	 viewBox="414 316 1440 321" style="enable-background:new 414 316 1440 321;" xml:space="preserve">
<style type="text/css">
	.st0{display:none;}
	.st1{display:inline;fill:none;}
	.st2{fill:#C8A23B;}
</style>
<g class="st0">
	<title>background</title>
	<rect id="canvas_background" x="413" y="314" class="st1" width="1442" height="322"/>
</g>
<g>
	<title>Layer 1</title>
	<path id="svg_1" class="st2" d="M413,412l40-16c40-16,120-48,200-42.7c80,5.7,160,47.7,240,64c80,15.7,160,5.7,240-21.3
		s160-69,240-64s160,59,240,64s160-37,200-58.7l40-21.3v160h-40c-40,0-120,0-200,0s-160,0-240,0s-160,0-240,0s-160,0-240,0
		s-160,0-240,0s-160,0-200,0h-40V412z"/>
</g>
<g>
	<title>Layer 1</title>
	<path id="svg_1_1_" class="st2" d="M1855,538l-40,16c-40,16-120,48-200,42.7c-80-5.7-160-47.7-240-64c-80-15.7-160-5.7-240,21.3
		s-160,69-240,64s-160-59-240-64s-160,37-200,58.7L415,634V474h40c40,0,120,0,200,0s160,0,240,0s160,0,240,0s160,0,240,0
		s160,0,240,0s160,0,200,0h40V538z"/>
</g>
</svg>
